<?xml version="1.0" encoding="UTF-8" standalone="no"?>
<!-- Created with Inkscape (http://www.inkscape.org/) -->

<svg
   width="200.00009"
   height="200"
   viewBox="0 0 52.91669 52.916666"
   version="1.1"
   id="svg1"
   inkscape:version="1.4.3 (0d15f75, 2025-12-25)"
   sodipodi:docname="homecrafted Haven.svg"
   inkscape:export-filename="homecrafted Haven.svg"
   inkscape:export-xdpi="96"
   inkscape:export-ydpi="96"
   xmlns:inkscape="http://www.inkscape.org/namespaces/inkscape"
   xmlns:sodipodi="http://sodipodi.sourceforge.net/DTD/sodipodi-0.dtd"
   xmlns="http://www.w3.org/2000/svg"
   xmlns:svg="http://www.w3.org/2000/svg">
  <sodipodi:namedview
     id="namedview1"
     pagecolor="#505050"
     bordercolor="#eeeeee"
     borderopacity="1"
     inkscape:showpageshadow="0"
     inkscape:pageopacity="0"
     inkscape:pagecheckerboard="0"
     inkscape:deskcolor="#505050"
     inkscape:document-units="mm"
     inkscape:zoom="4.0668163"
     inkscape:cx="100.69302"
     inkscape:cy="99.21766"
     inkscape:window-width="1920"
     inkscape:window-height="1009"
     inkscape:window-x="-8"
     inkscape:window-y="-8"
     inkscape:window-maximized="1"
     inkscape:current-layer="g4"
     showguides="false">
    <inkscape:page
       x="0"
       y="0"
       width="52.916691"
       height="52.916664"
       id="page2"
       margin="0"
       bleed="0" />
  </sodipodi:namedview>
  <defs
     id="defs1" />
  <g
     inkscape:label="Layer 1"
     inkscape:groupmode="layer"
     id="layer1">
    <g
       id="g4"
       transform="translate(4.9189583,-3.0362454)">
      <path
         d="m -7.2248862,33.414459 v -1.043101 q 1.6267412,-0.07451 1.837845,-0.211104 0.2235217,-0.149015 0.2980289,-0.596058 0.1241787,-0.682983 0.1241787,-3.43975 l -0.012418,-6.792576 q -0.012418,-3.439751 -0.1241788,-3.750197 -0.062089,-0.186268 -0.2111038,-0.285611 -0.2483574,-0.161433 -1.9123522,-0.260776 v -1.043101 q 2.4835743,0.08693 3.9364653,0.08693 2.29730621,0 4.19724055,-0.08693 v 1.043101 q -1.5273982,0.09934 -1.80059137,0.223522 -0.16143228,0.07451 -0.23593958,0.223522 -0.1241787,0.235939 -0.1738502,1.440473 -0.074507,1.788173 -0.074507,3.626018 v 1.030684 q 1.29145863,0.06209 4.0978976,0.06209 2.4959922,0 3.67569,-0.06209 0.012418,-4.035809 -0.086925,-5.364521 -0.049672,-0.707819 -0.2607753,-0.869251 -0.2856111,-0.235939 -1.937188,-0.310447 v -1.043101 q 3.09205,0.08693 4.1848227,0.08693 1.8750987,0 3.9613007,-0.08693 v 1.043101 q -1.589487,0.09934 -1.850263,0.23594 -0.149014,0.07451 -0.223521,0.223522 -0.111761,0.260775 -0.161433,2.024113 -0.086925,2.707096 -0.086925,4.383508 l 0.074507,5.637714 q 0.02484,1.912352 0.111761,2.197963 0.08692,0.285611 0.285611,0.40979 0.198686,0.111761 1.850263,0.223522 v 1.043101 l -1.378384,-0.03725 q -1.5522334,-0.04967 -2.4339022,-0.04967 -1.837845,0 -4.3338372,0.08693 v -1.043101 q 1.6639948,-0.07451 1.8875165,-0.260776 0.2359395,-0.198686 0.285611,-1.018265 0.086925,-1.40322 0.1117609,-5.985414 -1.3908017,-0.04967 -3.0920501,-0.04967 -2.66984232,0 -4.6815375,0.04967 v 0.819579 q 0,3.253483 0.086925,4.880224 0.062089,1.092772 0.29802891,1.279041 0.23593956,0.17385 1.89993434,0.285611 v 1.043101 l -1.46530884,-0.03725 q -1.39080161,-0.04967 -2.48357431,-0.04967 z"
         id="text3"
         style="font-weight:bold;font-size:25.4318px;font-family:'Book Antiqua';-inkscape-font-specification:'Book Antiqua, Bold';fill:#1e3f20;stroke-width:0.15895"
         transform="scale(0.66645855,1.5004684)"
         aria-label="H" />
      <path
         d="m 51.955663,33.516617 v -1.049746 q 1.637104,-0.07498 1.849552,-0.212448 0.224946,-0.149964 0.299928,-0.599855 0.124969,-0.687333 0.124969,-3.461661 l -0.0125,-6.835844 q -0.0125,-3.461662 -0.124969,-3.774086 -0.06249,-0.187454 -0.212449,-0.28743 -0.249939,-0.162461 -1.924534,-0.262437 v -1.049745 q 2.499395,0.08748 3.961541,0.08748 2.31194,0 4.223976,-0.08748 v 1.049745 q -1.537127,0.09998 -1.812061,0.224946 -0.16246,0.07498 -0.237442,0.224945 -0.12497,0.237443 -0.174958,1.449649 -0.07498,1.799564 -0.07498,3.649116 v 1.037249 q 1.299686,0.06248 4.124001,0.06248 2.511892,0 3.699104,-0.06248 0.0125,-4.061516 -0.08748,-5.398692 -0.04999,-0.712328 -0.262436,-0.874788 -0.28743,-0.237443 -1.949528,-0.312425 v -1.049745 q 3.111746,0.08748 4.21148,0.08748 1.887043,0 3.986534,-0.08748 v 1.049745 q -1.599612,0.09998 -1.862049,0.237443 -0.149963,0.07498 -0.224945,0.224945 -0.112473,0.262437 -0.162461,2.037007 -0.08748,2.72434 -0.08748,4.411431 l 0.07498,5.673626 q 0.02499,1.924533 0.112473,2.211964 0.08748,0.28743 0.28743,0.4124 0.199952,0.112473 1.862049,0.224945 v 1.049746 l -1.387164,-0.03749 q -1.562121,-0.04999 -2.449406,-0.04999 -1.849552,0 -4.361444,0.08748 v -1.049746 q 1.674595,-0.07498 1.89954,-0.262436 0.237443,-0.199952 0.287431,-1.024752 0.08748,-1.412158 0.112472,-6.023541 -1.399661,-0.04999 -3.111746,-0.04999 -2.686849,0 -4.711359,0.04999 v 0.824801 q 0,3.274206 0.08748,4.91131 0.06249,1.099733 0.299928,1.287188 0.237442,0.174958 1.912036,0.28743 v 1.049746 l -1.474642,-0.03749 q -1.399661,-0.04999 -2.499395,-0.04999 z"
         id="text3-7"
         style="font-weight:bold;font-size:25.5938px;font-family:'Book Antiqua';-inkscape-font-specification:'Book Antiqua, Bold';fill:#1e3f20;stroke-width:0.159962"
         transform="scale(0.67070214,1.4909748)"
         aria-label="H" />
      <path
         d="m 37.257592,40.910858 0.54081,0.497546 q -0.562443,1.081621 -0.995091,2.206507 -2.509361,1.319578 -4.845663,1.860388 -2.314669,0.562443 -5.343208,0.562443 -5.667694,0 -9.583163,-1.990183 -3.915468,-1.990183 -6.035445,-5.602797 -2.0983453,-3.612614 -2.0983453,-8.285217 0,-6.727684 4.7591333,-11.010903 4.780765,-4.304852 13.174144,-4.304852 2.790583,0 5.516268,0.497546 2.747317,0.497545 5.45137,1.514269 l 0.151427,0.324486 q -0.389383,1.168151 -0.54081,2.249772 -0.281222,1.882021 -0.432649,4.672603 h -1.817123 q -0.129795,-3.417922 -0.259589,-3.742409 -0.129795,-0.346118 -1.189783,-1.146518 -1.059989,-0.822032 -2.877113,-1.319578 -1.795491,-0.519178 -3.980365,-0.519178 -5.191781,0 -8.263585,3.201599 -3.050172,3.201598 -3.050172,8.912557 0,6.186873 3.677512,10.015812 3.39629,3.547717 9.323574,3.547717 2.293036,0 4.283219,-0.475913 2.011815,-0.475914 4.434647,-1.665697 z"
         id="text4"
         style="font-weight:bold;font-size:44.3032px;font-family:'Book Antiqua';-inkscape-font-specification:'Book Antiqua, Bold';fill:#1e3f20;stroke-width:0.276895"
         transform="scale(0.91823268,1.0890486)"
         aria-label="C" />
      <g
         id="g8"
         style="fill:#1e3f20;fill-opacity:1">
        <rect
           style="fill:#1e3f20;fill-opacity:1;stroke-width:0.222942"
           id="rect5"
           width="28.770372"
           height="5.1980958"
           x="-8.4394951"
           y="12.092303"
           transform="matrix(0.90262288,-0.43043226,0.22317697,0.97477794,0,0)" />
        <rect
           style="fill:#1e3f20;fill-opacity:1;stroke-width:0.218695"
           id="rect5-6"
           width="27.803371"
           height="5.1759629"
           x="24.19803"
           y="-8.3117924"
           transform="matrix(0.8876761,0.46046839,-0.22104811,0.9752629,0,0)" />
        <rect
           style="fill:#1e3f20;fill-opacity:1;stroke-width:0.264583"
           id="rect6"
           width="2.3170061"
           height="5.6671176"
           x="21.049837"
           y="3.0362458" />
        <rect
           style="fill:#1e3f20;fill-opacity:1;stroke-width:0.264583"
           id="rect7"
           width="1.1441368"
           height="5.0479245"
           x="46.853573"
           y="15.83882" />
        <rect
           style="fill:#1e3f20;fill-opacity:1;stroke-width:0.264583"
           id="rect8"
           width="1.1600953"
           height="5.0669899"
           x="-4.9189577"
           y="15.419942" />
      </g>
    </g>
    <rect
       style="fill:#1e3f20;fill-opacity:1;stroke-width:0.274983"
       id="rect4"
       width="52.916668"
       height="6.4358964"
       x="0"
       y="46.48077" />
  </g>
</svg>
